<?xml version="1.0" encoding="utf-8"?>
<!-- Generator: Adobe Illustrator 21.1.0, SVG Export Plug-In . SVG Version: 6.00 Build 0)  -->
<svg version="1.1" id="Capa_1" xmlns="http://www.w3.org/2000/svg" xmlns:xlink="http://www.w3.org/1999/xlink" x="0px" y="0px"
	 viewBox="0 0 512 512" style="enable-background:new 0 0 512 512;" xml:space="preserve">
<path style="fill:#C0EAB0;" d="M307,355.9H201.1c-45.7,0-82.9,37.2-82.9,82.9v65.7c0,4.1,3.4,7.5,7.5,7.5h256.6
	c4.1,0,7.5-3.4,7.5-7.5v-65.7C389.9,393.1,352.7,355.9,307,355.9z"/>
<path style="fill:#ABCE9D;" d="M307,355.9h-27c45.7,0,82.9,37.2,82.9,82.9v65.7c0,4.1-3.4,7.5-7.5,7.5h27c4.1,0,7.5-3.4,7.5-7.5
	v-65.7C389.9,393.1,352.7,355.9,307,355.9z"/>
<path style="fill:#BA7F52;" d="M144.4,7.2c-10.6-2-20.2,2-27,11.3c-4.9,6.7-7.3,14.6-8.3,17.9c-0.1,0.4-0.2,0.6-0.3,0.9
	c-0.9,2.2-0.8,4.7,0.4,6.8c2.3,3.9,5.7,4,11.5,4.2c9.8,0.3,35.7,1,41.5,13.6c0.9,1.9,2.4,3.3,4.4,3.9c0.8,0.3,1.6,0.4,2.4,0.4
	c1.2,0,2.3-0.3,3.4-0.8l13.3-6.8c2.5-1.3,4.1-3.9,4.1-6.7C189.9,40.3,168.4,11.8,144.4,7.2z M108.9,37.2c0.1-0.2,0.2-0.4,0.3-0.5
	C109,36.8,109,37,108.9,37.2z"/>
<path style="fill:#825939;" d="M438.7,71C437,52.5,419.1,27.1,383.4,12c-22.8-9.7-61.5-18.4-116.2-5.5
	C213.3,19.2,155.4,50.1,94.9,98.4c-19,15.1-26.4,35.7-19.4,53.8c4.2,10.9,13.2,19.8,26,25.6c10.9,5,24.5,7.6,39.6,7.6
	c3,0,6.1-0.1,9.2-0.3c73.2-4.8,208.9-7,210.3-7c0.8,0,1.6-0.2,2.4-0.4c20.7-7.4,40.8-22.8,55.2-42.1C433.5,114.9,440.8,92,438.7,71z
	"/>
<path style="fill:#684229;" d="M438.7,71C437,52.5,419.1,27.1,383.4,12C366.2,4.7,340-2,304.7,0.6C325.2,2.2,341.4,7,353.3,12
	C389,27.1,406.9,52.5,408.6,71c2,21-5.3,43.9-20.5,64.5c-14.3,19.3-34.4,34.7-55.2,42.1c-0.8,0.3-1.6,0.4-2.4,0.4
	c-1.3,0-128.6,2.1-203.1,6.6c4.4,0.5,9,0.8,13.7,0.8c3,0,6.1-0.1,9.2-0.3c73.2-4.8,208.9-7,210.3-7c0.8,0,1.6-0.2,2.4-0.4
	c20.7-7.4,40.8-22.8,55.2-42.1C433.5,114.9,440.8,92,438.7,71z"/>
<path style="fill:#FA9E3E;" d="M340.1,365.3c-0.8-2-2.4-3.5-4.4-4.2c-9.2-3.4-18.9-5.1-28.7-5.1h-3.3v-88.2c0-4.1-3.4-7.5-7.5-7.5
	H212c-4.1,0-7.5,3.4-7.5,7.5v88.2h-3.3c-9.9,0-19.5,1.7-28.7,5.1c-2,0.7-3.6,2.3-4.4,4.2c-0.8,2-0.7,4.2,0.2,6.1
	c15.8,32.8,49.4,54,85.8,54c6.9,0,13.8-0.7,20.6-2.2l24.7,17c1.3,0.9,2.8,1.3,4.3,1.3c1.3,0,2.6-0.3,3.8-1c2.5-1.4,4-4.2,3.7-7.1
	l-2-25.5c13.2-9.4,23.9-21.9,30.9-36.6C340.8,369.5,340.9,367.2,340.1,365.3z"/>
<path style="fill:#302100;" d="M146.3,145.3c-2-1.4-4.5-1.8-6.8-0.9c-2.6,0.9-6.9,3-13.3,6.1l-3.1,1.5c-2.6,1.3-4.2,3.9-4.2,6.7v8.5
	c-12.8,4.3-21.8,16.3-21.8,30.3c0,1.7,0.1,3.4,0.4,5.1c-9.2,8.2-14.6,20-14.6,32.5c0,24,19.5,43.5,43.5,43.5
	c6.6,0,12.9-1.4,18.9-4.3c2.6-1.2,4.2-3.9,4.2-6.8V151.4C149.5,149,148.3,146.7,146.3,145.3z"/>
<path style="fill:#FA9E3E;" d="M123.9,224h49.4v56.6h-49.4c-15.6,0-28.3-12.7-28.3-28.3S108.3,224,123.9,224z"/>
<path style="fill:#302100;" d="M410.2,182.1c2.7-4.8,4.2-10.2,4.2-15.8c0-15.1-10.5-27.7-24.5-31.1v-17.3c0-2-0.8-4-2.3-5.4
	c-1.5-1.4-3.5-2.2-5.5-2.1l-1.3,0c-5.3,0.2-10.8,0.4-15,0.7c-4,0.2-7.1,3.5-7.1,7.5v129.6c0,2.6,1.3,5,3.6,6.4
	c6.9,4.2,14.7,6.5,22.8,6.5c24,0,43.5-19.5,43.5-43.5C428.6,203.3,421.6,190.2,410.2,182.1z"/>
<path style="fill:#FA9E3E;" d="M384.2,224h-49.4v56.6h49.4c15.6,0,28.3-12.7,28.3-28.3S399.9,224,384.2,224z"/>
<path style="fill:#FFB56B;" d="M366.2,118.6v112.1c0,31-12.5,59-32.8,79.3c-20.3,20.3-48.3,32.8-79.3,32.8c-1,0-1.9,0-2.9,0h-0.1
	c-0.9,0-1.8-0.1-2.8-0.1c-0.1,0-0.1,0-0.2,0h0c-59.1-3.1-106.1-52.1-106.1-112v-79.3c58.3-20.7,145.2-28,200.9-31.4
	C351.4,119.4,359.3,119,366.2,118.6z"/>
<path style="fill:#EF9245;" d="M366.2,118.6v112.1c0,31-12.5,59-32.8,79.3c-20.3,20.3-48.3,32.8-79.3,32.8c-1,0-1.9,0-2.9,0h-0.1
	c-0.9,0-1.8-0.1-2.8-0.1c-0.1,0-0.1,0-0.2,0c52.8-3,94.8-46.7,94.8-100.3V120C351.4,119.4,359.3,119,366.2,118.6z"/>
<g>
	<circle style="fill:#F0EEEE;" cx="303.6" cy="206.7" r="28.8"/>
	<circle style="fill:#F0EEEE;" cx="204.6" cy="206.7" r="28.8"/>
</g>
<g>
	<path style="fill:#19303F;" d="M303.6,243c-20,0-36.3-16.3-36.3-36.3s16.3-36.3,36.3-36.3s36.3,16.3,36.3,36.3S323.6,243,303.6,243
		z M303.6,185.4c-11.8,0-21.3,9.6-21.3,21.3s9.6,21.3,21.3,21.3s21.3-9.6,21.3-21.3S315.3,185.4,303.6,185.4z"/>
	<path style="fill:#19303F;" d="M204.6,243c-20,0-36.3-16.3-36.3-36.3s16.3-36.3,36.3-36.3s36.3,16.3,36.3,36.3S224.6,243,204.6,243
		z M204.6,185.4c-11.8,0-21.3,9.6-21.3,21.3s9.6,21.3,21.3,21.3s21.3-9.6,21.3-21.3C225.9,194.9,216.3,185.4,204.6,185.4z"/>
	<path style="fill:#19303F;" d="M274.7,214.2c-1.3,0-2.7-0.4-3.9-1.1c-11.5-6.9-22.1-6.9-33.6,0c-3.5,2.1-8.2,1-10.3-2.5
		c-2.1-3.5-1-8.2,2.5-10.3c16.1-9.7,33-9.7,49.1,0c3.5,2.1,4.7,6.8,2.5,10.3C279.8,212.9,277.3,214.2,274.7,214.2z"/>
</g>
<path style="fill:#684229;" d="M120.9,168.8c-2.9,0-5.7-1.7-6.9-4.6c-1.6-3.8,0.2-8.2,4-9.8c1-0.4,3.3-1.5,5.1-2.4l3.1-1.5
	c6.4-3.1,10.8-5.2,13.3-6.1c69-24.5,175.3-30.4,226.3-33.2c4.3-0.2,9.7-0.4,15-0.7l1.3,0c6-0.2,11.6-0.4,14.1-0.6
	c4.1-0.3,7.7,2.8,8.1,6.9c0.3,4.1-2.8,7.7-6.9,8.1c-2.9,0.2-8.4,0.4-14.7,0.7l-1.2,0c-5.2,0.2-10.6,0.4-14.8,0.6
	c-50.4,2.8-155.1,8.6-222.1,32.4c-2,0.7-7.6,3.5-11.8,5.5l-3.1,1.5c-2.6,1.3-4.6,2.2-5.8,2.7C122.8,168.6,121.8,168.8,120.9,168.8z"
	/>
<path style="fill:#EF9245;" d="M340.1,365.3c-0.7-1.8-2.1-3.2-3.8-4c-1.5-0.6-3-1.1-4.5-1.6c-0.2-0.1-0.4-0.1-0.6-0.2
	c-1-0.3-2.1-0.6-3.1-0.9c-0.3-0.1-0.7-0.2-1-0.3c-0.9-0.2-1.8-0.4-2.8-0.6c-0.4-0.1-0.8-0.2-1.2-0.2c-0.9-0.2-1.8-0.3-2.6-0.5
	c-0.4-0.1-0.9-0.1-1.3-0.2c-0.9-0.1-1.7-0.2-2.6-0.3c-0.5-0.1-0.9-0.1-1.4-0.2c-0.9-0.1-1.8-0.2-2.8-0.2c-0.4,0-0.8-0.1-1.2-0.1
	c-1.3-0.1-2.7-0.1-4-0.1h-3.3v3.5c12.3,3.7,23.5,10.2,32.6,18.7c1.3-2.2,2.5-4.4,3.6-6.7C340.8,369.5,340.9,367.2,340.1,365.3z"/>
<path style="fill:#19303F;" d="M254.6,298.3c-13.2,0-25.5-6.5-33-17.3c-2.3-3.3-1.5-7.9,1.8-10.2c3.3-2.3,7.9-1.5,10.2,1.8
	c4.8,6.9,12.6,11,21,11c8.4,0,16.2-4.1,21-11c2.3-3.3,6.9-4.1,10.2-1.8c3.3,2.3,4.1,6.9,1.8,10.2C280,291.9,267.7,298.3,254.6,298.3
	z"/>
</svg>
